<svg xmlns="http://www.w3.org/2000/svg"
     xmlns:xlink="http://www.w3.org/1999/xlink"
     xmlns:v="https://odviz.org/1.0/"
     width="720" height="480" viewBox="0 0 720 480">

  <metadata>
    <v:table name="ventas_anio"
             description="Global video game sales by year of release (millions)"
             visualization="chart"
             version="1.0"
             created="2024-06-01T00:00:00Z"
             author="Arturo - 2024181232"
             source="VGChartz"
             columns="id,year,sales_m,color">

      <v:statistics>
        <v:total column="sales_m">1820.0</v:total>
        <v:max column="sales_m">332.1</v:max>
        <v:min column="sales_m">55.2</v:min>
      </v:statistics>

      <v:row id="row-0"  hrefs="bar-0,lbl-0">0,2000,62.3,#1565C0</v:row>
      <v:row id="row-1"  hrefs="bar-1,lbl-1">1,2001,81.5,#1565C0</v:row>
      <v:row id="row-2"  hrefs="bar-2,lbl-2">2,2002,93.4,#1565C0</v:row>
      <v:row id="row-3"  hrefs="bar-3,lbl-3">3,2003,110.2,#1976D2</v:row>
      <v:row id="row-4"  hrefs="bar-4,lbl-4">4,2004,139.8,#1976D2</v:row>
      <v:row id="row-5"  hrefs="bar-5,lbl-5">5,2005,188.5,#1E88E5</v:row>
      <v:row id="row-6"  hrefs="bar-6,lbl-6">6,2006,231.7,#1E88E5</v:row>
      <v:row id="row-7"  hrefs="bar-7,lbl-7">7,2007,332.1,#42A5F5</v:row>
      <v:row id="row-8"  hrefs="bar-8,lbl-8">8,2008,321.4,#42A5F5</v:row>
      <v:row id="row-9"  hrefs="bar-9,lbl-9">9,2009,277.5,#64B5F6</v:row>
      <v:row id="row-10" hrefs="bar-10,lbl-10">10,2010,255.3,#64B5F6</v:row>
      <v:row id="row-11" hrefs="bar-11,lbl-11">11,2011,199.6,#90CAF9</v:row>
      <v:row id="row-12" hrefs="bar-12,lbl-12">12,2012,155.9,#90CAF9</v:row>
      <v:row id="row-13" hrefs="bar-13,lbl-13">13,2013,55.2,#BBDEFB</v:row>
    </v:table>
  </metadata>

  <rect width="720" height="480" fill="#ffffff"/>

  <text x="360" y="36" text-anchor="middle" font-family="Arial,sans-serif"
        font-size="18" font-weight="bold" fill="#212121">
    Video Game Sales by Year of Release
  </text>
  <text x="360" y="56" text-anchor="middle" font-family="Arial,sans-serif"
        font-size="12" fill="#757575">Global sales in millions of units</text>

  <text x="18" y="260" text-anchor="middle" font-family="Arial,sans-serif"
        font-size="11" fill="#555" transform="rotate(-90,18,260)">Sales (millions)</text>

  <!-- Grid lines -->
  <g stroke="#e0e0e0" stroke-width="1">
    <line x1="70" y1="380" x2="695" y2="380"/>
    <line x1="70" y1="332" x2="695" y2="332"/>
    <line x1="70" y1="284" x2="695" y2="284"/>
    <line x1="70" y1="236" x2="695" y2="236"/>
    <line x1="70" y1="188" x2="695" y2="188"/>
    <line x1="70" y1="140" x2="695" y2="140"/>
    <line x1="70" y1="92"  x2="695" y2="92"/>
  </g>
  <g font-family="Arial,sans-serif" font-size="9" fill="#757575" text-anchor="end">
    <text x="62" y="383">0</text>
    <text x="62" y="335">50</text>
    <text x="62" y="287">100</text>
    <text x="62" y="239">150</text>
    <text x="62" y="191">200</text>
    <text x="62" y="143">250</text>
    <text x="62" y="95">300</text>
  </g>

  <line x1="70" y1="380" x2="695" y2="380" stroke="#424242" stroke-width="2"/>
  <line x1="70" y1="80"  x2="70"  y2="380" stroke="#424242" stroke-width="2"/>

  <!-- Bars: scale 0.96px per unit (300→288px), base y=380 -->
  <rect id="bar-0"  href="#row-0"  x="73"  y="320" width="41" height="60"  fill="#1565C0" rx="2"/>
  <rect id="bar-1"  href="#row-1"  x="118" y="302" width="41" height="78"  fill="#1565C0" rx="2"/>
  <rect id="bar-2"  href="#row-2"  x="163" y="290" width="41" height="90"  fill="#1565C0" rx="2"/>
  <rect id="bar-3"  href="#row-3"  x="208" y="274" width="41" height="106" fill="#1976D2" rx="2"/>
  <rect id="bar-4"  href="#row-4"  x="253" y="246" width="41" height="134" fill="#1976D2" rx="2"/>
  <rect id="bar-5"  href="#row-5"  x="298" y="199" width="41" height="181" fill="#1E88E5" rx="2"/>
  <rect id="bar-6"  href="#row-6"  x="343" y="157" width="41" height="223" fill="#1E88E5" rx="2"/>
  <rect id="bar-7"  href="#row-7"  x="388" y="61"  width="41" height="319" fill="#42A5F5" rx="2"/>
  <rect id="bar-8"  href="#row-8"  x="433" y="72"  width="41" height="308" fill="#42A5F5" rx="2"/>
  <rect id="bar-9"  href="#row-9"  x="478" y="113" width="41" height="267" fill="#64B5F6" rx="2"/>
  <rect id="bar-10" href="#row-10" x="523" y="135" width="41" height="245" fill="#64B5F6" rx="2"/>
  <rect id="bar-11" href="#row-11" x="568" y="188" width="41" height="192" fill="#90CAF9" rx="2"/>
  <rect id="bar-12" href="#row-12" x="613" y="230" width="41" height="150" fill="#90CAF9" rx="2"/>
  <rect id="bar-13" href="#row-13" x="658" y="327" width="41" height="53"  fill="#BBDEFB" rx="2"/>

  <!-- X labels -->
  <g font-family="Arial,sans-serif" font-size="9" text-anchor="middle" fill="#424242">
    <text id="lbl-0"  href="#row-0"  x="93"  y="396">2000</text>
    <text id="lbl-1"  href="#row-1"  x="138" y="396">2001</text>
    <text id="lbl-2"  href="#row-2"  x="183" y="396">2002</text>
    <text id="lbl-3"  href="#row-3"  x="228" y="396">2003</text>
    <text id="lbl-4"  href="#row-4"  x="273" y="396">2004</text>
    <text id="lbl-5"  href="#row-5"  x="318" y="396">2005</text>
    <text id="lbl-6"  href="#row-6"  x="363" y="396">2006</text>
    <text id="lbl-7"  href="#row-7"  x="408" y="396">2007</text>
    <text id="lbl-8"  href="#row-8"  x="453" y="396">2008</text>
    <text id="lbl-9"  href="#row-9"  x="498" y="396">2009</text>
    <text id="lbl-10" href="#row-10" x="543" y="396">2010</text>
    <text id="lbl-11" href="#row-11" x="588" y="396">2011</text>
    <text id="lbl-12" href="#row-12" x="633" y="396">2012</text>
    <text id="lbl-13" href="#row-13" x="678" y="396">2013</text>
  </g>

  <!-- Peak annotation -->
  <text x="408" y="52" text-anchor="middle" font-family="Arial,sans-serif"
        font-size="10" fill="#1565C0" font-weight="bold">▲ Peak: 332M</text>

  <text x="700" y="470" text-anchor="end" font-family="Arial,sans-serif"
        font-size="9" fill="#bdbdbd">Source: VGChartz</text>
</svg>
